# xmcd
#
# Track frame offsets: 
#        150
#        13625
#        33945
#        53998
#        72635
#        89453
#        108353
#        128635
#        145803
#        164023
#        178980
#        198313
#        224230
#
# Disc length: 3149 seconds
#
# Revision: 0
# Processed by: cddbd v1.5.2PL0 Copyright (c) Steve Scherf et al.
# Submitted via: ExactAudioCopyFreeDBPlugin 1.0
#
DISCID=c90c4b0d
DTITLE=Talib Kweli - Right About Now: The Official Sucka Free Mix CD
DYEAR=2005
DGENRE=Hip-Hop
TTITLE0=Right About Now
TTITLE1=Drugs, Basketball and Rap feat. Planet Asia and Phil The Agony
TTITLE2=Who Got It
TTITLE3=Fly That Knot
TTITLE4=Ms. Hill
TTITLE5=Flash Gordon
TTITLE6=Supreme Supreme feat. Mos Def
TTITLE7=The Beast feat. Papoose
TTITLE8=Roll Off Me
TTITLE9=Rock On
TTITLE10=Where You Gonna Run (Jean Grae feat. Talib Kweli)
TTITLE11=Two and Two
TTITLE12=Murderous
EXTD=
EXTT0=
EXTT1=
EXTT2=
EXTT3=
EXTT4=
EXTT5=
EXTT6=
EXTT7=
EXTT8=
EXTT9=
EXTT10=
EXTT11=
EXTT12=
PLAYORDER=
